<?xml version="1.0" standalone="no"?><!DOCTYPE svg PUBLIC "-//W3C//DTD SVG 1.1//EN" "http://www.w3.org/Graphics/SVG/1.1/DTD/svg11.dtd"><svg t="1743420204576" class="icon" viewBox="0 0 1024 1024" version="1.1" xmlns="http://www.w3.org/2000/svg" p-id="908" xmlns:xlink="http://www.w3.org/1999/xlink" width="128" height="128"><path d="M100.96 763.45V173.1c0-41.29 33.6-74.88 74.88-74.88h495.73c41.28 0 74.88 33.59 74.88 74.88v354.82c0 41.29-33.6 74.88-74.88 74.88H262.89L100.96 763.45z m74.88-614.68c-13.43 0-24.33 10.92-24.33 24.33v469.01l90.55-89.86h429.51c13.43 0 24.33-10.92 24.33-24.33V173.1c0-13.42-10.91-24.33-24.33-24.33H175.84z" fill="#F76236" p-id="909"></path><path d="M926.49 895.64L783.02 756.27h-348.2c-37.31 0-67.69-30.37-67.69-67.69v-51.16h50.54v51.16c0 9.46 7.68 17.15 17.14 17.15h368.7l72.42 70.35V385.11c0-9.46-7.68-17.15-17.14-17.15h-82.34v-50.54h82.34c37.31 0 67.69 30.37 67.69 67.69v510.53zM282.8 311.38h69.26v69.26H282.8zM396.14 311.38h69.26v69.26h-69.26zM509.48 311.38h69.26v69.26h-69.26z" fill="#F76236" p-id="910"></path></svg>